<?xml version="1.0" encoding="UTF-8"?> <!-- Creator: CorelDRAW 2019 (64-Bit) --> <svg xmlns="http://www.w3.org/2000/svg" xmlns:xlink="http://www.w3.org/1999/xlink" xmlns:xodm="http://www.corel.com/coreldraw/odm/2003" xml:space="preserve" width="200mm" height="126.513mm" style="shape-rendering:geometricPrecision; text-rendering:geometricPrecision; image-rendering:optimizeQuality; fill-rule:evenodd; clip-rule:evenodd" viewBox="0 0 47.4 29.9836"> <defs> <style type="text/css"> <![CDATA[ .fil1 {fill:#1F1B20} .fil0 {fill:black;fill-rule:nonzero} ]]> </style> </defs> <g id="Слой_x0020_1"> <metadata id="CorelCorpID_0Corel-Layer"></metadata> <g id="_70099777360"> <g> <path class="fil0" d="M44.0819 12.7111l-1.2275 -4.9099c0.3356,-0.0713 0.5874,-0.369 0.5874,-0.7257l0 -0.7916c0,-1.7188 -1.3984,-3.1171 -3.1171,-3.1171l-5.591 -0 0 -1.6329c0,-0.8458 -0.688,-1.5338 -1.5338,-1.5338l-28.4995 0c-0.8458,0 -1.5338,0.688 -1.5338,1.5338l0 13.4581c0,0.4098 0.3323,0.7422 0.7422,0.7422 0.4098,0 0.7422,-0.3323 0.7422,-0.7422l0 -13.4581c0,-0.0273 0.0221,-0.0494 0.0494,-0.0494l28.4994 0c0.0273,0 0.0494,0.0221 0.0494,0.0494l0 13.4583c0,0.4098 0.3323,0.7422 0.7422,0.7422 0.4098,0 0.7422,-0.3323 0.7422,-0.7422l0 -0.8414 8.7551 0c0.0007,0 0.0013,0.0002 0.0019,0.0002 0.0007,0 0.0014,-0.0001 0.002,-0.0001 1.0773,0.0007 1.9921,0.7078 2.3063,1.6822l-2.3078 0c-0.4098,0 -0.7422,0.3323 -0.7422,0.7422l0 1.5833c0,1.2823 1.0432,2.3255 2.3255,2.3255l0.8412 0 0 3.2655 -1.9406 0c-0.6375,-1.8407 -2.3873,-3.1666 -4.4421,-3.1666 -2.0548,0 -3.8047,1.3259 -4.4421,3.1666l-0.3573 0 0 -5.5911c0,-0.4098 -0.3323,-0.7422 -0.7422,-0.7422 -0.4098,0 -0.7422,0.3323 -0.7422,0.7422l0 5.5909 -15.3984 0c-0.6375,-1.8407 -2.3873,-3.1666 -4.4421,-3.1666 -2.0548,0 -3.8047,1.3259 -4.4421,3.1666l-4.2661 0c-0.0273,0 -0.0494,-0.0221 -0.0494,-0.0494l0 -1.6328 3.2161 0c0.4098,0 0.7422,-0.3323 0.7422,-0.7422 0,-0.4099 -0.3323,-0.7422 -0.7422,-0.7422l-7.1248 -0c-0.4098,0 -0.7422,0.3323 -0.7422,0.7422 0,0.4099 0.3323,0.7422 0.7422,0.7422l2.4244 0 0 1.6328c0,0.8458 0.688,1.5338 1.5338,1.5338l4.009 0c-0.0002,0.0165 -0.0013,0.0329 -0.0013,0.0494 0,2.5918 2.1087,4.7004 4.7004,4.7004 2.5917,0 4.7004,-2.1086 4.7004,-4.7004 0,-0.0167 -0.0011,-0.033 -0.0013,-0.0494l16.7261 0c-0.0002,0.0165 -0.0013,0.0329 -0.0013,0.0494 0,2.5918 2.1087,4.7004 4.7004,4.7004 2.5917,0 4.7004,-2.1086 4.7004,-4.7004 0,-0.0167 -0.0011,-0.033 -0.0013,-0.0494l2.4259 0c0.4098,0 0.7422,-0.3323 0.7422,-0.7422l0 -7.9165c0.0001,-1.9545 -1.442,-3.5785 -3.3181,-3.8641zm-9.3482 -8.0601l5.591 0c0.9003,0 1.6328,0.7325 1.6328,1.6328l0 0.0494 -7.2238 -0 0 -1.6822zm0 8.0154l0 -4.8489 6.5948 0 1.2122 4.8489 -7.807 0zm-21.3251 15.833c-1.7733,0 -3.2161,-1.4426 -3.2161,-3.2161 0,-1.7734 1.4427,-3.216 3.2161,-3.216 1.7733,0 3.2161,1.4426 3.2161,3.216 0,1.7734 -1.4427,3.2161 -3.2161,3.2161zm26.1245 0c-1.7733,0 -3.2161,-1.4426 -3.2161,-3.2161 0,-1.7734 1.4427,-3.216 3.2161,-3.216 1.7733,0 3.2161,1.4426 3.2161,3.216 0,1.7734 -1.4427,3.2161 -3.2161,3.2161zm6.3827 -9.4998l-0.8412 0c-0.4638,0 -0.8412,-0.3774 -0.8412,-0.8412l0 -0.8412 1.6822 -0 0 1.6823 0.0001 0z"></path> </g> </g> <g id="_70099784624"> <g> <path class="fil0" d="M13.4086 23.7496c-0.8458,0 -1.5338,0.688 -1.5338,1.5338 0,0.8458 0.688,1.5338 1.5338,1.5338 0.8458,0 1.5338,-0.688 1.5338,-1.5338 -0,-0.8458 -0.6881,-1.5338 -1.5338,-1.5338z"></path> </g> </g> <g id="_70099786544"> <g> <path class="fil0" d="M39.533 23.7496c-0.8458,0 -1.5338,0.688 -1.5338,1.5338 0,0.8458 0.688,1.5338 1.5338,1.5338 0.8458,0 1.5338,-0.688 1.5338,-1.5338 -0,-0.8458 -0.6881,-1.5338 -1.5338,-1.5338z"></path> </g> </g> <g id="_70099786352"> <g> <path class="fil0" d="M30.8248 20.583l-11.0831 0c-0.4098,0 -0.7422,0.3323 -0.7422,0.7422 0,0.4099 0.3323,0.7422 0.7422,0.7422l11.0831 0c0.4098,0 0.7422,-0.3323 0.7422,-0.7422 0,-0.4099 -0.3323,-0.7422 -0.7422,-0.7422z"></path> </g> </g> <g id="_70099788688"> <g> <path class="fil0" d="M11.8253 17.4164l-9.4998 0c-0.4098,0 -0.7422,0.3323 -0.7422,0.7422 0,0.4099 0.3323,0.7422 0.7422,0.7422l9.4998 0c0.4098,0 0.7422,-0.3323 0.7422,-0.7422 0,-0.4099 -0.3323,-0.7422 -0.7422,-0.7422z"></path> </g> </g> <path class="fil1" d="M19.724 11.4971l0 1.5781c0,0.5401 -0.3248,0.9302 -0.8796,0.9302 -0.5548,0 -0.8796,-0.3902 -0.8796,-0.9302l0 -1.9075c0,-0.2398 -0.0116,-0.5525 0.1194,-0.7627 0.0939,-0.1506 0.2445,-0.2375 0.4057,-0.3012 0.2371,-0.0937 0.5166,-0.1506 0.7662,-0.2012 0.9254,-0.1876 1.4434,-0.7415 1.4434,-1.689 0,-1.0792 -0.774,-1.72 -1.8213,-1.72 -0.9464,0 -1.5114,0.3809 -1.8289,1.2924 -0.1398,0.4012 -0.3454,0.6489 -0.7876,0.6489 -0.5081,0 -0.8845,-0.4114 -0.8626,-0.9192 0.0106,-0.2465 0.0629,-0.4875 0.1535,-0.7169 0.4916,-1.245 1.9889,-1.963 3.2749,-1.963 1.3023,0 2.6308,0.544 3.315,1.7001 0.2783,0.4702 0.4174,0.9969 0.4174,1.5428 0,1.8264 -1.1197,3.0194 -2.8359,3.4184zm-1.8773 4.8361c0,-0.5482 0.4496,-0.9977 0.9977,-0.9977 0.5482,0 0.9977,0.4496 0.9977,0.9977 0,0.5482 -0.4495,0.9977 -0.9977,0.9977 -0.5482,0 -0.9977,-0.4495 -0.9977,-0.9977z"></path> </g> </svg> 